<svg width="87" height="85" viewBox="0 0 87 85" fill="none" xmlns="http://www.w3.org/2000/svg">
<path d="M73.8213 21.25C77.0528 21.25 80.1519 22.5306 82.437 24.8101C84.722 27.0896 86.0057 30.1813 86.0057 33.405V49.47C86.0057 51.0662 85.6905 52.6468 85.0782 54.1215C84.4659 55.5962 83.5684 56.9362 82.437 58.0649C81.3055 59.1936 79.9623 60.0889 78.484 60.6998C77.0058 61.3106 75.4213 61.625 73.8213 61.625H43.4029C43.4029 63.2825 44.7662 65.705 46.4277 65.705H64.7043V72.845C64.7043 76.0687 63.4206 79.1604 61.1355 81.4399C58.8505 83.7194 55.7514 85 52.5199 85H34.2859C31.0544 85 27.9552 83.7194 25.6702 81.4399C23.3852 79.1604 22.1015 76.0687 22.1015 72.845V56.9075C22.1014 55.3133 22.4169 53.7347 23.0298 52.2624C23.6426 50.7901 24.5408 49.4529 25.6728 48.3276C26.8047 47.2023 28.1483 46.311 29.6263 45.7048C31.1043 45.0986 32.6878 44.7894 34.2859 44.795H56.6523C58.2504 44.795 59.8328 44.4803 61.3087 43.8689C62.7846 43.2576 64.125 42.3616 65.253 41.2323C66.381 40.1031 67.2745 38.7628 67.8822 37.2883C68.4898 35.8138 68.7997 34.2342 68.7941 32.64V21.25H73.8213ZM55.5873 71.3575C53.8832 71.3575 52.5199 72.6325 52.5199 75.14C52.5199 77.6475 53.8832 78.1575 55.5873 78.1575C55.9845 78.1575 56.3778 78.0795 56.7448 77.9278C57.1118 77.7762 57.4452 77.5539 57.7261 77.2737C58.007 76.9935 58.2298 76.6609 58.3818 76.2948C58.5338 75.9286 58.6121 75.5363 58.6121 75.14C58.6121 72.6325 57.2488 71.3575 55.5873 71.3575ZM12.9845 63.75C9.75295 63.75 6.6538 62.4694 4.36878 60.1899C2.08376 57.9104 0.800049 54.8187 0.800049 51.595V35.53C0.800049 33.9338 1.11521 32.3532 1.72753 30.8785C2.33986 29.4038 3.23735 28.0638 4.36878 26.9351C6.6538 24.6556 9.75295 23.375 12.9845 23.375H43.4029C43.4029 21.7175 42.0396 19.295 40.3781 19.295H22.1015V12.155C22.1015 8.93129 23.3852 5.83962 25.6702 3.56012C27.9552 1.28061 31.0544 0 34.2859 0H52.5199C54.1199 0 55.7044 0.314398 57.1826 0.925244C58.6609 1.53609 60.0041 2.43142 61.1355 3.56012C62.267 4.68881 63.1645 6.02877 63.7768 7.50348C64.3891 8.9782 64.7043 10.5588 64.7043 12.155V28.0925C64.7043 29.6867 64.3888 31.2653 63.776 32.7376C63.1631 34.2099 62.265 35.5471 61.133 36.6724C60.001 37.7977 58.6574 38.689 57.1794 39.2952C55.7014 39.9014 54.1179 40.2106 52.5199 40.205H30.1534C28.5553 40.205 26.973 40.5197 25.4971 41.1311C24.0212 41.7424 22.6808 42.6384 21.5527 43.7677C20.4247 44.8969 19.5312 46.2372 18.9236 47.7117C18.3159 49.1862 18.006 50.7658 18.0116 52.36V63.75H12.9845ZM31.2185 13.6425C32.9226 13.6425 34.2859 12.3675 34.2859 9.86C34.2859 7.3525 32.9226 6.8425 31.2185 6.8425C29.557 6.8425 28.1937 7.3525 28.1937 9.86C28.1937 12.3675 29.557 13.6425 31.2185 13.6425Z" fill="#1B9AAA"/>
</svg>
