<svg width="77" height="85" viewBox="0 0 77 85" fill="none" xmlns="http://www.w3.org/2000/svg">
<path d="M4.17285 0H65.4228C66.4381 0 67.4118 0.40706 68.1297 1.13163C68.8476 1.85621 69.2509 2.83894 69.2509 3.86364V19.3182C69.2509 20.3429 68.8476 21.3256 68.1297 22.0502C67.4118 22.7748 66.4381 23.1818 65.4228 23.1818H4.17285C3.15757 23.1818 2.18387 22.7748 1.46596 22.0502C0.748045 21.3256 0.344727 20.3429 0.344727 19.3182V3.86364C0.344727 2.83894 0.748045 1.85621 1.46596 1.13163C2.18387 0.40706 3.15757 0 4.17285 0ZM4.17285 30.9091H65.4228C66.4381 30.9091 67.4118 31.3162 68.1297 32.0407C68.8476 32.7653 69.2509 33.748 69.2509 34.7727V37.3614L59.6806 33.0727L34.7978 44.2V54.0909H4.17285C3.15757 54.0909 2.18387 53.6838 1.46596 52.9593C0.748045 52.2347 0.344727 51.252 0.344727 50.2273V34.7727C0.344727 33.748 0.748045 32.7653 1.46596 32.0407C2.18387 31.3162 3.15757 30.9091 4.17285 30.9091ZM4.17285 61.8182H34.7978C35.0275 70.5114 38.626 78.8182 44.215 85H4.17285C3.15757 85 2.18387 84.5929 1.46596 83.8684C0.748045 83.1438 0.344727 82.1611 0.344727 81.1364V65.6818C0.344727 64.6571 0.748045 63.6744 1.46596 62.9498C2.18387 62.2252 3.15757 61.8182 4.17285 61.8182ZM23.3135 15.4545H27.1416V7.72727H23.3135V15.4545ZM23.3135 46.3636H27.1416V38.6364H23.3135V46.3636ZM23.3135 77.2727H27.1416V69.5455H23.3135V77.2727ZM8.00097 7.72727V15.4545H15.6572V7.72727H8.00097ZM8.00097 38.6364V46.3636H15.6572V38.6364H8.00097ZM8.00097 69.5455V77.2727H15.6572V69.5455H8.00097ZM59.6806 42.5L76.9072 50.2273V61.8182C76.9072 72.5591 69.5572 82.5659 59.6806 85C49.8041 82.5659 42.4541 72.5591 42.4541 61.8182V50.2273L59.6806 42.5ZM59.6806 49.9955L50.1103 54.3227V64.6C50.1103 70.55 54.2064 76.1136 59.6806 77.5045V49.9955Z" fill="#1B9AAA"/>
</svg>
